<svg width="25" height="12" viewBox="0 0 25 12" fill="none" xmlns="http://www.w3.org/2000/svg">
<path d="M24.1504 5.19315L17.0153 0.444003C16.5799 0.154245 15.8739 0.154245 15.4386 0.444003C15.0032 0.73382 15.0032 1.20363 15.4386 1.49345L20.6705 4.97582H1.61487C0.999193 4.97582 0.5 5.30808 0.5 5.71788C0.5 6.12761 0.999193 6.45993 1.61487 6.45993H20.6705L15.4388 9.94231C15.0033 10.2321 15.0033 10.7019 15.4388 10.9918C15.6564 11.1365 15.9418 11.2091 16.2271 11.2091C16.5124 11.2091 16.7977 11.1365 17.0155 10.9918L24.1504 6.2426C24.5858 5.95278 24.5858 5.48297 24.1504 5.19315Z" fill="white" fill-opacity="0.2"/>
</svg>
